<mxfile host="Electron" modified="2025-05-30T23:08:06.279Z" agent="Mozilla/5.0 (Windows NT 10.0; Win64; x64) AppleWebKit/537.36 (KHTML, like Gecko) draw.io/22.1.2 Chrome/114.0.5735.289 Electron/25.9.4 Safari/537.36" etag="w3wSoCbhixvFy-gye3Y8" version="22.1.2" type="device">
  <diagram name="Страница — 1" id="00R3lIN3bO4PS_L97c3q">
    <mxGraphModel dx="1873" dy="523" grid="1" gridSize="10" guides="1" tooltips="1" connect="1" arrows="1" fold="1" page="1" pageScale="1" pageWidth="827" pageHeight="1169" math="0" shadow="0">
      <root>
        <mxCell id="0" />
        <mxCell id="1" parent="0" />
        <mxCell id="8vSoMtomyJ-KpTdp_CqP-94" value="Клиентское приложение" style="html=1;dropTarget=0;whiteSpace=wrap;" vertex="1" parent="1">
          <mxGeometry x="-160" y="210" width="180" height="90" as="geometry" />
        </mxCell>
        <mxCell id="8vSoMtomyJ-KpTdp_CqP-95" value="" style="shape=module;jettyWidth=8;jettyHeight=4;" vertex="1" parent="8vSoMtomyJ-KpTdp_CqP-94">
          <mxGeometry x="1" width="20" height="20" relative="1" as="geometry">
            <mxPoint x="-27" y="7" as="offset" />
          </mxGeometry>
        </mxCell>
        <mxCell id="8vSoMtomyJ-KpTdp_CqP-96" value="Сервис авторизации" style="html=1;dropTarget=0;whiteSpace=wrap;" vertex="1" parent="1">
          <mxGeometry x="110" y="400" width="180" height="90" as="geometry" />
        </mxCell>
        <mxCell id="8vSoMtomyJ-KpTdp_CqP-97" value="" style="shape=module;jettyWidth=8;jettyHeight=4;" vertex="1" parent="8vSoMtomyJ-KpTdp_CqP-96">
          <mxGeometry x="1" width="20" height="20" relative="1" as="geometry">
            <mxPoint x="-27" y="7" as="offset" />
          </mxGeometry>
        </mxCell>
        <mxCell id="8vSoMtomyJ-KpTdp_CqP-98" value="База данных" style="html=1;dropTarget=0;whiteSpace=wrap;" vertex="1" parent="1">
          <mxGeometry x="490" y="190" width="180" height="90" as="geometry" />
        </mxCell>
        <mxCell id="8vSoMtomyJ-KpTdp_CqP-99" value="" style="shape=module;jettyWidth=8;jettyHeight=4;" vertex="1" parent="8vSoMtomyJ-KpTdp_CqP-98">
          <mxGeometry x="1" width="20" height="20" relative="1" as="geometry">
            <mxPoint x="-27" y="7" as="offset" />
          </mxGeometry>
        </mxCell>
        <mxCell id="8vSoMtomyJ-KpTdp_CqP-102" value="" style="rounded=0;orthogonalLoop=1;jettySize=auto;html=1;endArrow=halfCircle;endFill=0;endSize=6;strokeWidth=1;sketch=0;exitX=0.278;exitY=0.015;exitDx=0;exitDy=0;exitPerimeter=0;" edge="1" target="8vSoMtomyJ-KpTdp_CqP-104" parent="1" source="8vSoMtomyJ-KpTdp_CqP-96">
          <mxGeometry relative="1" as="geometry">
            <mxPoint x="250" y="335" as="sourcePoint" />
          </mxGeometry>
        </mxCell>
        <mxCell id="8vSoMtomyJ-KpTdp_CqP-103" value="" style="rounded=0;orthogonalLoop=1;jettySize=auto;html=1;endArrow=oval;endFill=0;sketch=0;sourcePerimeterSpacing=0;targetPerimeterSpacing=0;endSize=10;exitX=1;exitY=0.5;exitDx=0;exitDy=0;" edge="1" target="8vSoMtomyJ-KpTdp_CqP-104" parent="1" source="8vSoMtomyJ-KpTdp_CqP-94">
          <mxGeometry relative="1" as="geometry">
            <mxPoint x="210" y="335" as="sourcePoint" />
          </mxGeometry>
        </mxCell>
        <mxCell id="8vSoMtomyJ-KpTdp_CqP-104" value="" style="ellipse;whiteSpace=wrap;html=1;align=center;aspect=fixed;fillColor=none;strokeColor=none;resizable=0;perimeter=centerPerimeter;rotatable=0;allowArrows=0;points=[];outlineConnect=1;" vertex="1" parent="1">
          <mxGeometry x="90" y="300" width="10" height="10" as="geometry" />
        </mxCell>
        <mxCell id="8vSoMtomyJ-KpTdp_CqP-106" value="Вводимые логин и пароль" style="text;html=1;strokeColor=none;fillColor=none;align=center;verticalAlign=middle;whiteSpace=wrap;rounded=0;" vertex="1" parent="1">
          <mxGeometry x="70" y="240" width="60" height="30" as="geometry" />
        </mxCell>
        <mxCell id="8vSoMtomyJ-KpTdp_CqP-107" value="" style="rounded=0;orthogonalLoop=1;jettySize=auto;html=1;endArrow=halfCircle;endFill=0;endSize=6;strokeWidth=1;sketch=0;exitX=0;exitY=0.25;exitDx=0;exitDy=0;" edge="1" target="8vSoMtomyJ-KpTdp_CqP-109" parent="1" source="8vSoMtomyJ-KpTdp_CqP-98">
          <mxGeometry relative="1" as="geometry">
            <mxPoint x="310" y="315" as="sourcePoint" />
          </mxGeometry>
        </mxCell>
        <mxCell id="8vSoMtomyJ-KpTdp_CqP-108" value="" style="rounded=0;orthogonalLoop=1;jettySize=auto;html=1;endArrow=oval;endFill=0;sketch=0;sourcePerimeterSpacing=0;targetPerimeterSpacing=0;endSize=10;exitX=0.75;exitY=0;exitDx=0;exitDy=0;" edge="1" target="8vSoMtomyJ-KpTdp_CqP-109" parent="1" source="8vSoMtomyJ-KpTdp_CqP-96">
          <mxGeometry relative="1" as="geometry">
            <mxPoint x="270" y="315" as="sourcePoint" />
          </mxGeometry>
        </mxCell>
        <mxCell id="8vSoMtomyJ-KpTdp_CqP-109" value="" style="ellipse;whiteSpace=wrap;html=1;align=center;aspect=fixed;fillColor=none;strokeColor=none;resizable=0;perimeter=centerPerimeter;rotatable=0;allowArrows=0;points=[];outlineConnect=1;" vertex="1" parent="1">
          <mxGeometry x="285" y="310" width="10" height="10" as="geometry" />
        </mxCell>
        <mxCell id="8vSoMtomyJ-KpTdp_CqP-110" value="Логин" style="text;html=1;strokeColor=none;fillColor=none;align=center;verticalAlign=middle;whiteSpace=wrap;rounded=0;" vertex="1" parent="1">
          <mxGeometry x="235" y="280" width="60" height="30" as="geometry" />
        </mxCell>
        <mxCell id="8vSoMtomyJ-KpTdp_CqP-111" value="" style="rounded=0;orthogonalLoop=1;jettySize=auto;html=1;endArrow=halfCircle;endFill=0;endSize=6;strokeWidth=1;sketch=0;exitX=1;exitY=0.25;exitDx=0;exitDy=0;" edge="1" target="8vSoMtomyJ-KpTdp_CqP-113" parent="1" source="8vSoMtomyJ-KpTdp_CqP-96">
          <mxGeometry relative="1" as="geometry">
            <mxPoint x="390.0000000000001" y="475.83000000000004" as="sourcePoint" />
          </mxGeometry>
        </mxCell>
        <mxCell id="8vSoMtomyJ-KpTdp_CqP-112" value="" style="rounded=0;orthogonalLoop=1;jettySize=auto;html=1;endArrow=oval;endFill=0;sketch=0;sourcePerimeterSpacing=0;targetPerimeterSpacing=0;endSize=10;exitX=0.206;exitY=1.001;exitDx=0;exitDy=0;exitPerimeter=0;" edge="1" target="8vSoMtomyJ-KpTdp_CqP-113" parent="1" source="8vSoMtomyJ-KpTdp_CqP-98">
          <mxGeometry relative="1" as="geometry">
            <mxPoint x="634.1" y="330" as="sourcePoint" />
          </mxGeometry>
        </mxCell>
        <mxCell id="8vSoMtomyJ-KpTdp_CqP-113" value="" style="ellipse;whiteSpace=wrap;html=1;align=center;aspect=fixed;fillColor=none;strokeColor=none;resizable=0;perimeter=centerPerimeter;rotatable=0;allowArrows=0;points=[];outlineConnect=1;" vertex="1" parent="1">
          <mxGeometry x="413" y="360" width="10" height="10" as="geometry" />
        </mxCell>
        <mxCell id="8vSoMtomyJ-KpTdp_CqP-114" value="Учетные данные" style="text;html=1;strokeColor=none;fillColor=none;align=center;verticalAlign=middle;whiteSpace=wrap;rounded=0;" vertex="1" parent="1">
          <mxGeometry x="363" y="320" width="60" height="30" as="geometry" />
        </mxCell>
        <mxCell id="8vSoMtomyJ-KpTdp_CqP-115" value="" style="rounded=0;orthogonalLoop=1;jettySize=auto;html=1;endArrow=halfCircle;endFill=0;endSize=6;strokeWidth=1;sketch=0;exitX=0.649;exitY=0.994;exitDx=0;exitDy=0;exitPerimeter=0;" edge="1" target="8vSoMtomyJ-KpTdp_CqP-117" parent="1" source="8vSoMtomyJ-KpTdp_CqP-94">
          <mxGeometry relative="1" as="geometry">
            <mxPoint x="-44.64" y="346.26" as="sourcePoint" />
          </mxGeometry>
        </mxCell>
        <mxCell id="8vSoMtomyJ-KpTdp_CqP-116" value="" style="rounded=0;orthogonalLoop=1;jettySize=auto;html=1;endArrow=oval;endFill=0;sketch=0;sourcePerimeterSpacing=0;targetPerimeterSpacing=0;endSize=10;exitX=0;exitY=0.556;exitDx=0;exitDy=0;exitPerimeter=0;" edge="1" target="8vSoMtomyJ-KpTdp_CqP-117" parent="1" source="8vSoMtomyJ-KpTdp_CqP-96">
          <mxGeometry relative="1" as="geometry">
            <mxPoint x="90.0000000000001" y="490.0000000000001" as="sourcePoint" />
          </mxGeometry>
        </mxCell>
        <mxCell id="8vSoMtomyJ-KpTdp_CqP-117" value="" style="ellipse;whiteSpace=wrap;html=1;align=center;aspect=fixed;fillColor=none;strokeColor=none;resizable=0;perimeter=centerPerimeter;rotatable=0;allowArrows=0;points=[];outlineConnect=1;" vertex="1" parent="1">
          <mxGeometry x="-4.640000000000001" y="406.26" width="10" height="10" as="geometry" />
        </mxCell>
        <mxCell id="8vSoMtomyJ-KpTdp_CqP-118" value="Статус авторизации" style="text;html=1;strokeColor=none;fillColor=none;align=center;verticalAlign=middle;whiteSpace=wrap;rounded=0;" vertex="1" parent="1">
          <mxGeometry x="-64.64" y="416.26" width="60" height="30" as="geometry" />
        </mxCell>
      </root>
    </mxGraphModel>
  </diagram>
</mxfile>
